<?xml version="1.0" encoding="UTF-8" standalone="no"?>
<!-- Created with Inkscape (http://www.inkscape.org/) -->

<svg
   xmlns:dc="http://purl.org/dc/elements/1.1/"
   xmlns:cc="http://creativecommons.org/ns#"
   xmlns:rdf="http://www.w3.org/1999/02/22-rdf-syntax-ns#"
   xmlns:svg="http://www.w3.org/2000/svg"
   xmlns="http://www.w3.org/2000/svg"
   xmlns:sodipodi="http://sodipodi.sourceforge.net/DTD/sodipodi-0.dtd"
   xmlns:inkscape="http://www.inkscape.org/namespaces/inkscape"
   width="862.85718"
   height="700"
   id="svg4574"
   version="1.1"
   inkscape:version="0.48.5 r10040"
   sodipodi:docname="exhaust.svg">
  <defs
     id="defs4576" />
  <sodipodi:namedview
     id="base"
     pagecolor="#ffffff"
     bordercolor="#666666"
     borderopacity="1.0"
     inkscape:pageopacity="0.0"
     inkscape:pageshadow="2"
     inkscape:zoom="0.69999999"
     inkscape:cx="485.95303"
     inkscape:cy="305.95668"
     inkscape:document-units="px"
     inkscape:current-layer="layer1"
     showgrid="false"
     fit-margin-top="0"
     fit-margin-left="0"
     fit-margin-right="0"
     fit-margin-bottom="0"
     inkscape:window-width="1680"
     inkscape:window-height="988"
     inkscape:window-x="-8"
     inkscape:window-y="-8"
     inkscape:window-maximized="1" />
  <metadata
     id="metadata4579">
    <rdf:RDF>
      <cc:Work
         rdf:about="">
        <dc:format>image/svg+xml</dc:format>
        <dc:type
           rdf:resource="http://purl.org/dc/dcmitype/StillImage" />
        <dc:title />
      </cc:Work>
    </rdf:RDF>
  </metadata>
  <g
     inkscape:label="Layer 1"
     inkscape:groupmode="layer"
     id="layer1"
     transform="translate(69.520744,74.455738)">
    <path
       style="fill:#dfd4ad;fill-opacity:1;stroke:none"
       d="M 345.85353,-73.386688 333.66138,78.885162 296.52141,340.8653 234.38235,422.3555 151.94014,442.96372 592.59961,442.39127 497.96524,403.46464 443.87178,357.9743 407.49455,164.06232 391.7193,-73.386688 z"
       id="path5420"
       inkscape:connector-curvature="0"
       sodipodi:nodetypes="ccccccccccc" />
    <path
       style="fill:#dfd4ad;fill-opacity:1;stroke:none"
       d="m 581.94644,437.95816 159.07864,38.66366 52.25212,-30.93091 -1.16115,156.20106 -859.51456,-5.46775 -1.442903,-208.40847 37.696378,66.95444 188.107605,-13.91891 z"
       id="path5426"
       inkscape:connector-curvature="0"
       sodipodi:nodetypes="ccccccccc" />
    <path
       style="fill:#eae2c4;fill-opacity:1;stroke:none"
       d="m 355.1926,-74.455738 26.70663,1.129866 19.73969,459.856912 46.44633,215.80513 -97.82903,-6.51892 -45.67362,-3.08016 35.51496,-199.42682 17.41734,-328.792049 z"
       id="path5572"
       inkscape:connector-curvature="0"
       sodipodi:nodetypes="ccccccccc" />
    <g
       id="g4668"
       transform="matrix(1.1451292,0,0,1.1185138,-67.264862,-85.651707)">
      <path
         sodipodi:nodetypes="cccccc"
         inkscape:connector-curvature="0"
         id="path5499"
         d="M -0.54140937,454.00356 -1.9699804,612.03396 376.76544,612.55546 88.871959,591.15646 12.641337,509.33678 z"
         style="fill:#bdb082;fill-opacity:1;stroke:none" />
      <path
         sodipodi:nodetypes="cccc"
         inkscape:connector-curvature="0"
         id="path5452"
         d="m 372.79878,631.65196 c -73.50452,-64.7211 -156.03628,-59.9694 -156.03628,-59.9694 -58.42307,12.9082 -20.06523,46.651 8.60762,53.8589 z"
         style="fill:#bdb082;fill-opacity:1;stroke:none" />
      <path
         sodipodi:nodetypes="cccccc"
         inkscape:connector-curvature="0"
         id="path5497"
         d="m 750.81774,476.50176 0.71429,138.074 -368.70568,0 209.10158,-23.9698 119.32927,-48.3294 z"
         style="fill:#bdb082;fill-opacity:1;stroke:none" />
      <path
         sodipodi:nodetypes="cccc"
         inkscape:connector-curvature="0"
         id="path5452-62"
         d="m 233.66767,617.32536 c -36.48974,-33.1466 -77.46088,-30.713 -77.46088,-30.713 -29.00288,6.6109 -9.96095,23.8921 4.27308,27.5835 z"
         style="fill:#bdb082;fill-opacity:1;stroke:none" />
      <path
         sodipodi:nodetypes="cccc"
         inkscape:connector-curvature="0"
         id="path5452-4"
         d="m 124.62509,597.36976 c -28.822714,-36.7873 -66.925956,-30.6875 -66.925956,-30.6875 -27.680425,10.162 -12.637135,29.34 -0.05634,32.6449 z"
         style="fill:#bdb082;fill-opacity:1;stroke:none" />
      <path
         sodipodi:nodetypes="cccc"
         inkscape:connector-curvature="0"
         id="path5452-5"
         d="m 365.30986,635.50816 c 102.16111,-76.6977 187.57442,-71.0667 187.57442,-71.0667 81.19998,15.2969 27.88789,55.2837 -11.96341,63.8254 z"
         style="fill:#bdb082;fill-opacity:1;stroke:none" />
      <path
         sodipodi:nodetypes="cccc"
         inkscape:connector-curvature="0"
         id="path5452-5-8"
         d="m 623.52577,585.35446 c 40.58549,-48.5282 96.74157,-55.1514 96.74157,-55.1514 41.05716,1.2122 19.8736,26.5169 1.57537,34.2947 z"
         style="fill:#bdb082;fill-opacity:1;stroke:none" />
    </g>
    <rect
       style="fill:#bdb082;fill-opacity:1;stroke:none"
       id="rect4677"
       width="862.32379"
       height="29.844616"
       x="-69.379372"
       y="595.69965" />
  </g>
</svg>
