<?xml version="1.0" encoding="UTF-8" standalone="no"?>
<!-- Created with Inkscape (http://www.inkscape.org/) -->

<svg
   xmlns:dc="http://purl.org/dc/elements/1.1/"
   xmlns:cc="http://creativecommons.org/ns#"
   xmlns:rdf="http://www.w3.org/1999/02/22-rdf-syntax-ns#"
   xmlns:svg="http://www.w3.org/2000/svg"
   xmlns="http://www.w3.org/2000/svg"
   xmlns:sodipodi="http://sodipodi.sourceforge.net/DTD/sodipodi-0.dtd"
   xmlns:inkscape="http://www.inkscape.org/namespaces/inkscape"
   width="150.88091"
   height="324.06732"
   id="svg3949"
   version="1.1"
   inkscape:version="0.48.5 r10040"
   sodipodi:docname="rocket.svg">
  <defs
     id="defs3951" />
  <sodipodi:namedview
     id="base"
     pagecolor="#ffffff"
     bordercolor="#666666"
     borderopacity="1.0"
     inkscape:pageopacity="0.0"
     inkscape:pageshadow="2"
     inkscape:zoom="6.5297298"
     inkscape:cx="44.163348"
     inkscape:cy="59.286868"
     inkscape:document-units="px"
     inkscape:current-layer="layer1"
     showgrid="false"
     fit-margin-top="0"
     fit-margin-left="0"
     fit-margin-right="0"
     fit-margin-bottom="0"
     inkscape:window-width="1680"
     inkscape:window-height="988"
     inkscape:window-x="-8"
     inkscape:window-y="-8"
     inkscape:window-maximized="1" />
  <metadata
     id="metadata3954">
    <rdf:RDF>
      <cc:Work
         rdf:about="">
        <dc:format>image/svg+xml</dc:format>
        <dc:type
           rdf:resource="http://purl.org/dc/dcmitype/StillImage" />
        <dc:title />
      </cc:Work>
    </rdf:RDF>
  </metadata>
  <g
     inkscape:label="Layer 1"
     inkscape:groupmode="layer"
     id="layer1"
     transform="translate(-273.13098,-238.89995)">
    <path
       style="fill:#42464a;fill-opacity:1;stroke:none;stroke-opacity:1;stroke-width:2;stroke-miterlimit:4;stroke-dasharray:none"
       d="m 326.26054,482.21912 44.20606,-1.60135 14.20484,26.36789 c -21.23831,18.57127 -48.84832,18.40561 -71.03907,-0.63849 z"
       id="path5367"
       inkscape:connector-curvature="0"
       sodipodi:nodetypes="ccccc" />
    <path
       style="fill:#59848f;fill-opacity:1;stroke:#d2d5d8;stroke-width:1.97773063;stroke-miterlimit:4;stroke-opacity:1;stroke-dasharray:none"
       d="m 382.35258,437.53719 29.35296,42.41779 6.25249,57.51477 -3.38835,9.93795 -2.9648,-2.89857 0,-7.03938 -11.92172,-39.34104 -30.85618,-24.30855 z"
       id="path5369-4"
       inkscape:connector-curvature="0"
       sodipodi:nodetypes="ccccccccc" />
    <path
       style="fill:#3c5961;fill-opacity:1;stroke:#798285;stroke-width:1.97773062999999990;stroke-miterlimit:4;stroke-opacity:1;stroke-dasharray:none"
       d="m 312.95566,437.60757 -29.35296,42.41779 -6.25249,57.51477 3.38835,9.93794 2.9648,-2.89856 0,-7.03938 11.92172,-39.34105 30.85618,-24.30854 z"
       id="path5369-4-1"
       inkscape:connector-curvature="0"
       sodipodi:nodetypes="ccccccccc" />
    <path
       style="fill:#59848f;fill-opacity:1;stroke:#d2d5d8;stroke-width:1.97773063;stroke-miterlimit:4;stroke-opacity:1;stroke-dasharray:none"
       d="m 327.75817,480.3826 c -39.34831,-71.42885 -40.97475,-169.87469 23.3558,-240.54871 58.72039,68.22441 59.49823,168.27606 18.3336,240.47987 -11.00497,6.0806 -24.04077,7.90663 -41.6894,0.0688 z"
       id="path5389"
       inkscape:connector-curvature="0"
       sodipodi:nodetypes="cccc" />
    <path
       style="fill:none;stroke:#d2d5d8;stroke-width:1.97773063;stroke-linecap:butt;stroke-linejoin:miter;stroke-miterlimit:4;stroke-opacity:1;stroke-dasharray:none"
       d="m 323.41018,278.49077 c 26.82302,12.27944 53.47861,0.43401 53.47872,0.43391"
       id="path3836"
       inkscape:connector-curvature="0"
       sodipodi:nodetypes="cc" />
    <path
       style="fill:#42464a;fill-opacity:1;stroke:none"
       d="m 85.86297,108.77856 -30.430849,9.09137 c -24.20897,32.89938 22.157125,64.28905 44.825529,24.36993 6.9038,-18.14347 -3.907497,-26.44688 -14.39468,-33.4613 z"
       id="path3976"
       inkscape:connector-curvature="0"
       transform="translate(273.13098,238.89995)"
       sodipodi:nodetypes="cccc" />
    <g
       id="g3844"
       transform="matrix(1.4144621,0,0,1.3828604,-144.95406,-133.02469)">
      <g
         transform="translate(-40.714286,-5)"
         id="g3828">
        <path
           sodipodi:type="arc"
           style="fill:#d2d5d8;fill-opacity:1;stroke:none"
           id="path5393-7-0-7-0"
           sodipodi:cx="383.03571"
           sodipodi:cy="351.11218"
           sodipodi:rx="24.464285"
           sodipodi:ry="20.178572"
           d="m 407.49999,351.11218 c 0,11.14432 -10.95303,20.17857 -24.46428,20.17857 -13.51126,0 -24.46429,-9.03425 -24.46429,-20.17857 0,-11.14431 10.95303,-20.17857 24.46429,-20.17857 13.51125,0 24.46428,9.03426 24.46428,20.17857 z"
           transform="matrix(0.72231624,0,0,0.85436932,114.06521,68.344936)" />
        <path
           sodipodi:type="arc"
           style="fill:#42464a;fill-opacity:1;stroke:none"
           id="path5393-7-0-7"
           sodipodi:cx="383.03571"
           sodipodi:cy="351.11218"
           sodipodi:rx="24.464285"
           sodipodi:ry="20.178572"
           d="m 407.49999,351.11218 c 0,11.14432 -10.95303,20.17857 -24.46428,20.17857 -13.51126,0 -24.46429,-9.03425 -24.46429,-20.17857 0,-11.14431 10.95303,-20.17857 24.46429,-20.17857 13.51125,0 24.46428,9.03426 24.46428,20.17857 z"
           transform="matrix(0.5427542,0,0,0.64197994,182.84388,142.91743)" />
      </g>
      <path
         transform="translate(273.13098,238.89995)"
         inkscape:connector-curvature="0"
         id="path3840"
         d="m 66.607143,114.78161 15,22.5 5.178572,-3.39286 -16.071429,-23.39286 z"
         style="fill:#d2d5d8;fill-opacity:1;stroke:none" />
      <path
         transform="translate(273.13098,238.89995)"
         inkscape:connector-curvature="0"
         id="path3842"
         d="m 87.857143,132.99589 -15.178571,-21.96428 1.607143,-0.17858 15.357143,21.60715 z"
         style="fill:#d2d5d8;fill-opacity:1;stroke:none" />
    </g>
    <path
       style="fill:none;stroke:#d2d5d8;stroke-width:1.75963879;stroke-linecap:butt;stroke-linejoin:miter;stroke-miterlimit:4;stroke-opacity:1;stroke-dasharray:none"
       d="m 309.17121,436.21266 c 23.89561,7.95956 49.10646,12.26358 78.79988,-0.66911"
       id="path3851"
       inkscape:connector-curvature="0"
       sodipodi:nodetypes="cc" />
    <path
       style="fill:#eeedbc;fill-opacity:1;stroke:#000000;stroke-width:0.98886532px;stroke-linecap:butt;stroke-linejoin:miter;stroke-opacity:0"
       d="m 364.42526,285.60075 c 3.43759,-1.06109 7.69451,-2.48322 11.11265,-3.08652 30.27581,61.38211 19.75353,120.00177 10.22891,151.38492 l -4.29434,1.5488 c 4.1507,-29.01654 16.20422,-79.96185 -17.04722,-149.8472 z"
       id="path3853"
       inkscape:connector-curvature="0"
       sodipodi:nodetypes="ccccc" />
    <path
       style="fill:#eeedbc;fill-opacity:1;stroke:#000000;stroke-width:0.98886532px;stroke-linecap:butt;stroke-linejoin:miter;stroke-opacity:0"
       d="m 379.4521,441.12714 5.0519,-1.42536 -8.58711,22.51475 -0.25353,0.77981 z"
       id="path3855"
       inkscape:connector-curvature="0"
       sodipodi:nodetypes="ccccc" />
    <path
       style="fill:none;stroke:#798285;stroke-width:2;stroke-linecap:butt;stroke-linejoin:miter;stroke-opacity:1;stroke-miterlimit:4;stroke-dasharray:none"
       d="M 111.53907,267.97292 C 89.395636,284.76664 65.889115,287.02075 40.284013,266.89001"
       id="path3815"
       inkscape:connector-curvature="0"
       transform="translate(273.13098,238.89995)"
       sodipodi:nodetypes="cc" />
    <path
       style="fill:#36201b;fill-opacity:1;stroke:none"
       d="m 79.918284,247.39775 c -16.368046,0.15393 -15.00293,-1.38424 -25.664814,-4.33161 l -12.345101,24.25703 c 9.266045,7.0875 12.586047,10.54388 29.021816,13.10314 -20.688902,-13.09813 -5.236523,-28.47942 8.988099,-33.02856 z"
       id="path3805"
       inkscape:connector-curvature="0"
       transform="translate(273.13098,238.89995)"
       sodipodi:nodetypes="ccccc" />
    <g
       id="g3801"
       transform="translate(-0.43315855,0.64974216)">
      <path
         sodipodi:nodetypes="ccccccc"
         inkscape:connector-curvature="0"
         id="path5391"
         d="m 344.37364,450.55493 1.06339,85.04855 2.9245,26.62064 6.33643,0 2.92451,-26.62064 1.5331,-84.61216 z"
         style="fill:#59848f;fill-opacity:1;stroke:#d2d5d8;stroke-width:1.97773063;stroke-miterlimit:4;stroke-opacity:1;stroke-dasharray:none" />
      <path
         inkscape:connector-curvature="0"
         id="path3859"
         d="m 351.26966,450.5738 7.32216,0 -1.42872,85.37908 -2.85743,26.01531 -3.2146,0 z"
         style="fill:#eeedbc;fill-opacity:1;stroke:#000000;stroke-width:0.98886532px;stroke-linecap:butt;stroke-linejoin:miter;stroke-opacity:0" />
    </g>
    <path
       style="fill:#1e2d31;fill-opacity:0.49468085;stroke:none"
       d="m 350.48305,239.09735 c -21.38991,86.11653 -15.05702,162.17441 -0.35715,211.42858 l -7.14285,-0.35715 0.35714,36.78572 0,0.71428 -16.60714,-6.07143 c -6.07143,-11.6774 -13.39286,-28.21333 -18.39286,-44.28571 -17.91346,-52.17959 -15.93416,-134.53051 42.14286,-198.21429 z"
       id="path3946"
       inkscape:connector-curvature="0"
       sodipodi:nodetypes="cccccccc" />
    <path
       style="fill:#eeedbc;fill-opacity:1;stroke:#000000;stroke-width:1px;stroke-linecap:butt;stroke-linejoin:miter;stroke-opacity:0"
       d="M 78.160553,3.7226946 C 90.147469,17.52471 96.379525,30.234904 101.01525,39.204302 L 89.145962,41.729684 C 88.586285,31.467564 84.411628,18.33706 78.160553,3.7226946 z"
       id="path3974"
       inkscape:connector-curvature="0"
       transform="translate(273.13098,238.89995)"
       sodipodi:nodetypes="cccc" />
    <path
       style="fill:none;stroke:#42464a;stroke-width:1.98863876;stroke-linecap:butt;stroke-linejoin:miter;stroke-miterlimit:4;stroke-opacity:1;stroke-dasharray:none"
       d="m 323.16322,280.62137 c 27.11972,12.27943 54.07015,0.43401 54.07026,0.43391"
       id="path3836-8"
       inkscape:connector-curvature="0"
       sodipodi:nodetypes="cc" />
    <path
       style="fill:none;stroke:#42464a;stroke-width:1.75963879;stroke-linecap:butt;stroke-linejoin:miter;stroke-miterlimit:4;stroke-opacity:1;stroke-dasharray:none"
       d="m 310.50264,438.3044 c 23.89561,7.95956 45.35646,11.37072 75.40702,0.0452"
       id="path3851-2"
       inkscape:connector-curvature="0"
       sodipodi:nodetypes="cc" />
    <path
       style="fill:#834743;fill-opacity:1;stroke:none"
       d="m 56.663907,239.83719 c -6.659284,-11.80786 -13.10008,-26.13 -17.382036,-38.89901 l 13.25161,3.58805 c -7.072248,4.01341 -5.202106,16.90638 3.90615,34.90725 -0.442443,3.55641 4.393838,2.00264 0.224276,0.40371 z"
       id="path4021"
       inkscape:connector-curvature="0"
       transform="translate(273.13098,238.89995)"
       sodipodi:nodetypes="ccccc" />
    <path
       style="fill:#834743;fill-opacity:1;stroke:none"
       d="M 38.592715,197.10954 C 27.992873,160.06523 27.945789,130.9159 31.854305,102.92494 l 1.531457,15.31456 c -0.346096,33.48467 14.576517,79.90611 28.867963,84.613 z"
       id="path4023"
       inkscape:connector-curvature="0"
       transform="translate(273.13098,238.89995)"
       sodipodi:nodetypes="ccccc" />
    <path
       style="fill:#834743;fill-opacity:1;stroke:none"
       d="m 53.447848,38.450599 c 0.826875,-1.505931 2.922301,-5.231827 4.858994,-8.679941 0.315397,3.122976 4.201338,9.259866 9.536701,12.661729 -5.263784,-0.513129 -10.278251,-1.462563 -14.395695,-3.981788 z"
       id="path4025"
       inkscape:connector-curvature="0"
       transform="translate(273.13098,238.89995)"
       sodipodi:nodetypes="cccc" />
    <path
       style="fill:#303a3e;fill-opacity:0.67021275;stroke:#000000;stroke-width:1px;stroke-linecap:butt;stroke-linejoin:miter;stroke-opacity:0"
       d="m 58.520522,127.07402 -0.22315,0.0831 c 10.9115,-13.35626 23.748834,-14.01454 37.546164,2.93041 -1.078462,-8.3491 -5.140042,-15.70562 -17.657897,-17.61961 -11.38849,0.25397 -16.961767,5.87799 -19.665117,14.60606 z"
       id="path3014"
       inkscape:connector-curvature="0"
       transform="translate(273.13098,238.89995)"
       sodipodi:nodetypes="cccccc" />
    <path
       style="fill:#d2d5d8;stroke:#798285;stroke-width:2;stroke-linecap:butt;stroke-linejoin:miter;stroke-opacity:1;fill-opacity:1;stroke-miterlimit:4;stroke-dasharray:none"
       d="M 63.241569,244.36562 51.979372,275.33666"
       id="path3807"
       inkscape:connector-curvature="0"
       transform="translate(273.13098,238.89995)" />
    <path
       style="fill:#d2d5d8;stroke:#d2d5d8;stroke-width:2;stroke-linecap:butt;stroke-linejoin:miter;stroke-opacity:1;fill-opacity:1;stroke-miterlimit:4;stroke-dasharray:none"
       d="m 87.71519,245.44852 9.962713,31.18762"
       id="path3809"
       inkscape:connector-curvature="0"
       transform="translate(273.13098,238.89995)" />
    <path
       style="fill:none;stroke:#d2d5d8;stroke-width:2;stroke-linecap:butt;stroke-linejoin:miter;stroke-opacity:1;stroke-miterlimit:4;stroke-dasharray:none"
       d="m 96.811581,241.55007 14.944069,26.85601"
       id="path3811"
       inkscape:connector-curvature="0"
       transform="translate(273.13098,238.89995)" />
    <path
       style="fill:none;stroke:#798285;stroke-width:2;stroke-linecap:butt;stroke-linejoin:miter;stroke-opacity:1;stroke-miterlimit:4;stroke-dasharray:none"
       d="M 53.928599,242.41639 40.284013,267.32317"
       id="path3813"
       inkscape:connector-curvature="0"
       transform="translate(273.13098,238.89995)" />
  </g>
</svg>
