<?xml version="1.0" encoding="UTF-8" standalone="no"?>
<!-- Created with Inkscape (http://www.inkscape.org/) -->

<svg
   xmlns:dc="http://purl.org/dc/elements/1.1/"
   xmlns:cc="http://creativecommons.org/ns#"
   xmlns:rdf="http://www.w3.org/1999/02/22-rdf-syntax-ns#"
   xmlns:svg="http://www.w3.org/2000/svg"
   xmlns="http://www.w3.org/2000/svg"
   xmlns:sodipodi="http://sodipodi.sourceforge.net/DTD/sodipodi-0.dtd"
   xmlns:inkscape="http://www.inkscape.org/namespaces/inkscape"
   width="150.88091"
   height="324.06732"
   id="svg3949"
   version="1.1"
   inkscape:version="0.48.5 r10040"
   sodipodi:docname="New document 7">
  <defs
     id="defs3951" />
  <sodipodi:namedview
     id="base"
     pagecolor="#ffffff"
     bordercolor="#666666"
     borderopacity="1.0"
     inkscape:pageopacity="0.0"
     inkscape:pageshadow="2"
     inkscape:zoom="0.98994949"
     inkscape:cx="-173.92699"
     inkscape:cy="151.2394"
     inkscape:document-units="px"
     inkscape:current-layer="layer1"
     showgrid="false"
     fit-margin-top="0"
     fit-margin-left="0"
     fit-margin-right="0"
     fit-margin-bottom="0"
     inkscape:window-width="1680"
     inkscape:window-height="988"
     inkscape:window-x="-8"
     inkscape:window-y="-8"
     inkscape:window-maximized="1" />
  <metadata
     id="metadata3954">
    <rdf:RDF>
      <cc:Work
         rdf:about="">
        <dc:format>image/svg+xml</dc:format>
        <dc:type
           rdf:resource="http://purl.org/dc/dcmitype/StillImage" />
        <dc:title></dc:title>
      </cc:Work>
    </rdf:RDF>
  </metadata>
  <g
     inkscape:label="Layer 1"
     inkscape:groupmode="layer"
     id="layer1"
     transform="translate(-273.13098,-238.89995)">
    <path
       style="fill:#42464a;fill-opacity:1;stroke:none"
       d="m 324.47698,484.39673 48.48733,0.50507 6.06091,31.31473 -60.60915,-1.01015 z"
       id="path5367"
       inkscape:connector-curvature="0" />
    <path
       style="fill:#59848f;fill-opacity:1;stroke:none"
       d="m 326.91561,488.60911 -36.42108,18.63404 -17.36355,38.11509 3.38801,10.16402 2.96451,-2.9645 0,-7.19952 22.02205,-27.10406 20.75155,-4.65851 z"
       id="path5369"
       inkscape:connector-curvature="0" />
    <path
       style="fill:#59848f;fill-opacity:1;stroke:none"
       d="m 370.22725,489.53768 36.42109,18.63405 17.36354,38.11508 -3.38801,10.16403 -2.9645,-2.96451 0,-7.19952 -22.02206,-27.10406 -20.75155,-4.65851 z"
       id="path5369-4"
       inkscape:connector-curvature="0" />
    <path
       style="fill:#858585;fill-opacity:1;stroke:none"
       d="m 327.76017,485.37557 -17.30197,-22.20626 -13.92484,-127.91729 25.57017,-70.98623 26.99963,-24.97445 25.22475,23.63455 28.51367,74.68935 -15.40527,124.88115 -17.99093,22.80877 z"
       id="path5389"
       inkscape:connector-curvature="0"
       sodipodi:nodetypes="cccccccccc" />
    <path
       style="fill:#59848f;fill-opacity:1;stroke:none"
       d="m 344.34317,491.18405 -1.4621,43.71414 2.92421,28.06909 6.33579,0 2.92422,-28.06909 -0.48737,-43.25399 z"
       id="path5391"
       inkscape:connector-curvature="0"
       sodipodi:nodetypes="ccccccc" />
    <path
       style="fill:#59848f;fill-opacity:1;stroke:none"
       d="m 348.67613,238.89995 -27.5,26.07143 53.92857,-1.78571 z"
       id="path5699"
       inkscape:connector-curvature="0" />
    <path
       style="fill:#394f69;fill-opacity:1;stroke:none"
       d="m 322.32699,264.11815 -0.74522,1.71052 53.65538,-1.19736 -0.74522,-1.71053 z"
       id="path5781"
       inkscape:connector-curvature="0" />
    <path
       sodipodi:type="arc"
       style="fill:#42464a;fill-opacity:1;stroke:none"
       id="path5393-7-4"
       sodipodi:cx="383.03571"
       sodipodi:cy="351.11218"
       sodipodi:rx="24.464285"
       sodipodi:ry="20.178572"
       d="m 407.49999,351.11218 c 0,11.14432 -10.95303,20.17857 -24.46428,20.17857 -13.51126,0 -24.46429,-9.03425 -24.46429,-20.17857 0,-11.14431 10.95303,-20.17857 24.46429,-20.17857 13.51125,0 24.46428,9.03426 24.46428,20.17857 z"
       transform="matrix(0.38993207,0,0,0.46121902,198.63964,141.39445)" />
    <path
       sodipodi:type="arc"
       style="fill:#42464a;fill-opacity:1;stroke:none"
       id="path5393-7-0"
       sodipodi:cx="383.03571"
       sodipodi:cy="351.11218"
       sodipodi:rx="24.464285"
       sodipodi:ry="20.178572"
       d="m 407.49999,351.11218 c 0,11.14432 -10.95303,20.17857 -24.46428,20.17857 -13.51126,0 -24.46429,-9.03425 -24.46429,-20.17857 0,-11.14431 10.95303,-20.17857 24.46429,-20.17857 13.51125,0 24.46428,9.03426 24.46428,20.17857 z"
       transform="matrix(0.71793671,0,0,0.84918911,74.460568,48.862533)" />
  </g>
</svg>
